<svg xmlns="http://www.w3.org/2000/svg" version="1.1" xmlns:xlink="http://www.w3.org/1999/xlink" xmlns:svgjs="http://svgjs.dev/svgjs" width="1000" height="1000" viewBox="0 0 1000 1000"><rect width="1000" height="1000" fill="#ffffff"></rect><g transform="matrix(0.7,0,0,0.7,149.57575757575756,414.2446223635734)"><svg viewBox="0 0 396 97" data-background-color="#ffffff" preserveAspectRatio="xMidYMid meet" height="244" width="1000" xmlns="http://www.w3.org/2000/svg" xmlns:xlink="http://www.w3.org/1999/xlink"><g id="tight-bounds" transform="matrix(1,0,0,1,0.2400000000000091,0.20182453590973637)"><svg viewBox="0 0 395.52 96.59635092818056" height="96.59635092818056" width="395.52"><g><svg viewBox="0 0 440.9712702048745 107.69674243010616" height="96.59635092818056" width="395.52"><g transform="matrix(1,0,0,1,45.45127020487448,14.884282057995861)"><svg viewBox="0 0 395.52 77.92817831411443" height="77.92817831411443" width="395.52"><g id="textblocktransform"><svg viewBox="0 0 395.52 77.92817831411443" height="77.92817831411443" width="395.52" id="textblock"><g><svg viewBox="0 0 395.52 42.03073569482289" height="42.03073569482289" width="395.52"><g transform="matrix(1,0,0,1,0,0)"><svg width="395.52" viewBox="2.9 -26.05 366.97 39" height="42.03073569482289" data-palette-color="#bb84e8"><path d="M26.8-3.25Q27.5-3.15 27.85-2.85 28.2-2.55 28.2-1.75L28.2-1.75Q28.2-1 27.83-0.55 27.45-0.1 26.8-0.1L26.8-0.1Q24.75-0.1 23.78-0.75 22.8-1.4 22.1-3.2L22.1-3.2Q19.85 0.45 14.1 0.45L14.1 0.45Q10.05 0.45 7.55-1.35 5.05-3.15 3.98-5.93 2.9-8.7 2.9-11.8L2.9-11.8Q2.9-15.15 4.25-18.1 5.6-21.05 8.22-22.85 10.85-24.65 14.5-24.65L14.5-24.65Q17-24.65 18.85-23.65 20.7-22.65 21.75-20.85L21.75-20.85 21.95-22.5Q22.05-24.35 23.65-24.35L23.65-24.35Q24.65-24.35 25.18-23.88 25.7-23.4 25.6-22.75L25.6-22.75 25.45-21.5Q25.1-19.4 24.95-17.15L24.95-17.15Q24.8-15.25 24.8-12.05L24.8-12.05 24.8-8.6Q24.8-6.45 24.93-5.43 25.05-4.4 25.45-3.85 25.85-3.3 26.8-3.25L26.8-3.25ZM21-8.65Q21.05-11 21.05-14.7L21.05-14.7Q21.05-17.15 20-18.68 18.95-20.2 17.45-20.85 15.95-21.5 14.6-21.5L14.6-21.5Q11.95-21.5 10.18-20 8.4-18.5 7.58-16.25 6.75-14 6.75-11.8L6.75-11.8Q6.75-8.3 8.47-5.53 10.2-2.75 14.15-2.75L14.15-2.75Q17.1-2.75 19.03-4.28 20.95-5.8 21-8.65L21-8.65ZM47.05-25.45Q55.5-25.45 55.5-13.5L55.5-13.5 55.5-1.8Q55.5-0.05 53.65-0.05L53.65-0.05Q51.65-0.05 51.65-1.75L51.65-1.75 51.65-13.55Q51.65-17.95 50.65-20.03 49.65-22.1 47.05-22.1L47.05-22.1Q44.3-22.1 42.55-20 40.8-17.9 40.1-14.5L40.1-14.5Q39.65-12.2 39.65-8.85L39.65-8.85 39.7-1.45Q39.7-0.75 39.2-0.38 38.7 0 37.85 0L37.85 0Q36.9 0 36.4-0.4 35.9-0.8 35.9-1.45L35.9-1.45Q35.9-5.9 35.7-12.3L35.7-12.3Q35.55-16 35.55-18.85L35.55-18.85Q35.55-20.1 35.27-20.83 35-21.55 34.2-22.85L34.2-22.85Q34-23.15 34-23.55L34-23.55Q34-24.15 34.67-24.68 35.35-25.2 36-25.2L36-25.2Q36.65-25.2 37.35-24.25L37.35-24.25Q37.9-23.45 38.37-22.33 38.85-21.2 38.85-20.2L38.85-20.2 38.85-19.65Q39.75-22.15 41.75-23.8 43.75-25.45 47.05-25.45L47.05-25.45ZM73.75 0.05Q68.09 0.05 64.37-2.95 60.65-5.95 60.65-12.35L60.65-12.35Q60.65-16.35 62.17-19.38 63.7-22.4 66.59-24.1 69.5-25.8 73.45-25.8L73.45-25.8Q77.25-25.8 80.27-24.23 83.3-22.65 85.02-19.63 86.75-16.6 86.75-12.4L86.75-12.4Q86.75-6.3 83.17-3.13 79.59 0.05 73.75 0.05L73.75 0.05ZM73.65-3.1Q77.65-3.1 80.27-5.48 82.9-7.85 82.9-12.45L82.9-12.45Q82.9-15.45 81.72-17.78 80.55-20.1 78.42-21.38 76.3-22.65 73.55-22.65L73.55-22.65Q69.45-22.65 66.97-19.85 64.5-17.05 64.5-12.45L64.5-12.45Q64.5-7.6 67.15-5.35 69.8-3.1 73.65-3.1L73.65-3.1ZM104.39-25.45Q112.84-25.45 112.84-13.5L112.84-13.5 112.84-1.8Q112.84-0.05 110.99-0.05L110.99-0.05Q108.99-0.05 108.99-1.75L108.99-1.75 108.99-13.55Q108.99-17.95 107.99-20.03 106.99-22.1 104.39-22.1L104.39-22.1Q101.64-22.1 99.89-20 98.14-17.9 97.44-14.5L97.44-14.5Q96.99-12.2 96.99-8.85L96.99-8.85 97.04-1.45Q97.04-0.75 96.54-0.38 96.04 0 95.19 0L95.19 0Q94.24 0 93.74-0.4 93.24-0.8 93.24-1.45L93.24-1.45Q93.24-5.9 93.04-12.3L93.04-12.3Q92.89-16 92.89-18.85L92.89-18.85Q92.89-20.1 92.62-20.83 92.34-21.55 91.54-22.85L91.54-22.85Q91.34-23.15 91.34-23.55L91.34-23.55Q91.34-24.15 92.02-24.68 92.69-25.2 93.34-25.2L93.34-25.2Q93.99-25.2 94.69-24.25L94.69-24.25Q95.24-23.45 95.72-22.33 96.19-21.2 96.19-20.2L96.19-20.2 96.19-19.65Q97.09-22.15 99.09-23.8 101.09-25.45 104.39-25.45L104.39-25.45ZM126.79 12.95Q125.94 12.95 125.37 12.43 124.79 11.9 124.79 11.15L124.79 11.15Q124.79 10.85 124.94 10.45L124.94 10.45Q127.69 3.65 129.64-1.85L129.64-1.85Q127.59-3.15 125.29-6.75 122.99-10.35 121.12-14.88 119.24-19.4 118.24-23.25L118.24-23.25Q118.14-23.55 118.14-23.9L118.14-23.9Q118.14-24.5 118.64-24.95 119.14-25.4 120.09-25.4L120.09-25.4Q120.84-25.4 121.14-25.1 121.44-24.8 121.64-24.05L121.64-24.05Q126.74-8.35 130.94-5.6L130.94-5.6Q133.99-16.4 135.99-24.25L135.99-24.25Q136.19-24.95 136.54-25.25 136.89-25.55 137.64-25.55L137.64-25.55Q139.49-25.55 139.79-24.05L139.79-24.05Q139.84-23.85 139.74-23.5L139.74-23.5Q138.04-16.5 136.97-12.65 135.89-8.8 134.29-4.15L134.29-4.15Q133.14-0.85 131.42 3.93 129.69 8.7 128.54 11.6L128.54 11.6Q128.29 12.3 127.87 12.63 127.44 12.95 126.79 12.95L126.79 12.95ZM170.29-25.55Q174.74-25.55 176.54-22.6 178.34-19.65 178.34-14.35L178.34-14.35Q178.34-5.95 178.29-1.6L178.29-1.6Q178.29-0.9 177.81-0.45 177.34 0 176.49 0L176.49 0Q175.59 0 175.11-0.45 174.64-0.9 174.64-1.7L174.64-1.7 174.64-14.05Q174.64-18.55 173.66-20.55 172.69-22.55 170.04-22.55L170.04-22.55Q167.54-22.55 166.34-19.75 165.14-16.95 165.09-13.15L165.09-13.15 165.09-9.3 165.09-1.7Q165.09-0.1 163.24-0.1L163.24-0.1Q161.29-0.1 161.29-1.8L161.29-1.8 161.34-10.85 161.34-13.15Q161.29-16.7 159.91-19.53 158.54-22.35 156.14-22.35L156.14-22.35Q154.29-22.35 153.06-20.53 151.84-18.7 151.04-14.7L151.04-14.7Q150.59-12.3 150.59-7.75L150.59-7.75 150.59-4.45 150.59-1.55Q150.59-0.85 150.04-0.48 149.49-0.1 148.74-0.1L148.74-0.1Q147.89-0.15 147.41-0.53 146.94-0.9 146.94-1.6L146.94-1.6Q146.94-6.65 146.84-17.75L146.84-17.75 146.84-19.65Q146.79-20.9 146.54-21.45 146.29-22 145.84-22.45L145.84-22.45Q145.74-22.55 145.51-22.75 145.29-22.95 145.29-23.25L145.29-23.25Q145.29-24 145.84-24.5 146.39-25 147.09-25L147.09-25Q147.44-25 147.91-24.63 148.39-24.25 148.74-23.75L148.74-23.75Q149.29-23 149.51-22.25 149.74-21.5 149.74-20.45L149.74-20.45 149.74-19.6Q150.59-22.45 152.29-23.93 153.99-25.4 156.34-25.4L156.34-25.4Q161.49-25.4 163.09-19.6L163.09-19.6Q163.84-22.5 165.69-24.03 167.54-25.55 170.29-25.55L170.29-25.55ZM197.04 0.05Q191.39 0.05 187.66-2.95 183.94-5.95 183.94-12.35L183.94-12.35Q183.94-16.35 185.46-19.38 186.99-22.4 189.89-24.1 192.79-25.8 196.74-25.8L196.74-25.8Q200.54-25.8 203.56-24.23 206.59-22.65 208.31-19.63 210.04-16.6 210.04-12.4L210.04-12.4Q210.04-6.3 206.46-3.13 202.89 0.05 197.04 0.05L197.04 0.05ZM196.94-3.1Q200.94-3.1 203.56-5.48 206.19-7.85 206.19-12.45L206.19-12.45Q206.19-15.45 205.01-17.78 203.84-20.1 201.71-21.38 199.59-22.65 196.84-22.65L196.84-22.65Q192.74-22.65 190.26-19.85 187.79-17.05 187.79-12.45L187.79-12.45Q187.79-7.6 190.44-5.35 193.09-3.1 196.94-3.1L196.94-3.1ZM234.73-5.5Q234.73-4.55 234.96-3.9 235.18-3.25 235.53-2.68 235.88-2.1 235.88-1.9L235.88-1.9Q235.88-1.35 235.33-0.85 234.78-0.35 234.28-0.35L234.28-0.35Q233.28-0.35 232.51-1.6 231.73-2.85 231.73-4L231.73-4 231.73-4.7Q230.68-2.4 228.51-1.2 226.33 0 223.53 0L223.53 0Q219.28 0 217.18-2.9 215.08-5.8 215.08-11.35L215.08-11.35 215.08-23.7Q215.08-24.35 215.61-24.75 216.13-25.15 216.93-25.15L216.93-25.15Q217.78-25.15 218.33-24.75 218.88-24.35 218.88-23.7L218.88-23.7 218.88-11.25Q218.88-7.05 220.08-5.1 221.28-3.15 223.93-3.15L223.93-3.15Q230.68-3.15 230.68-15.4L230.68-15.4 230.68-23.75Q230.68-24.55 231.18-25 231.68-25.45 232.53-25.45L232.53-25.45Q233.43-25.45 233.98-25 234.53-24.55 234.53-23.75L234.53-23.75 234.73-5.5ZM251.38 0.25Q247.98 0.25 245.58-1.43 243.18-3.1 241.83-5.7L241.83-5.7Q241.48-6.4 241.48-6.65L241.48-6.65Q241.48-7.35 242.11-7.88 242.73-8.4 243.48-8.4L243.48-8.4Q243.98-8.4 244.26-8.13 244.53-7.85 245.03-7.15L245.03-7.15Q246.28-5.25 247.68-4.13 249.08-3 251.38-3L251.38-3Q253.53-3 254.96-4.05 256.38-5.1 256.38-6.7L256.38-6.7Q256.38-7.85 255.61-8.65 254.83-9.45 253.71-9.95 252.58-10.45 250.48-11.2L250.48-11.2Q247.83-12.15 246.21-12.93 244.58-13.7 243.43-15.13 242.28-16.55 242.28-18.75L242.28-18.75Q242.28-20.7 243.36-22.38 244.43-24.05 246.43-25.05 248.43-26.05 251.03-26.05L251.03-26.05Q253.63-26.05 255.63-25.05 257.63-24.05 258.73-22.4 259.83-20.75 259.83-18.75L259.83-18.75Q259.83-17.75 259.46-17.3 259.08-16.85 258.13-16.85L258.13-16.85Q257.13-16.85 256.81-17.23 256.48-17.6 256.43-18.2L256.43-18.2Q256.23-20.55 254.78-21.68 253.33-22.8 251.03-22.8L251.03-22.8Q248.33-22.8 247.21-21.53 246.08-20.25 246.08-18.8L246.08-18.8Q246.08-17.1 247.56-16.18 249.03-15.25 252.13-14.15L252.13-14.15Q254.78-13.2 256.38-12.4 257.98-11.6 259.11-10.2 260.23-8.8 260.23-6.7L260.23-6.7Q260.23-3.45 257.68-1.6 255.13 0.25 251.38 0.25L251.38 0.25ZM306.23-3.25Q306.93-3.15 307.28-2.85 307.63-2.55 307.63-1.75L307.63-1.75Q307.63-1 307.25-0.55 306.88-0.1 306.23-0.1L306.23-0.1Q304.18-0.1 303.2-0.75 302.23-1.4 301.53-3.2L301.53-3.2Q299.28 0.45 293.53 0.45L293.53 0.45Q289.48 0.45 286.98-1.35 284.48-3.15 283.4-5.93 282.32-8.7 282.32-11.8L282.32-11.8Q282.32-15.15 283.68-18.1 285.03-21.05 287.65-22.85 290.28-24.65 293.93-24.65L293.93-24.65Q296.43-24.65 298.28-23.65 300.13-22.65 301.18-20.85L301.18-20.85 301.38-22.5Q301.48-24.35 303.07-24.35L303.07-24.35Q304.07-24.35 304.6-23.88 305.13-23.4 305.03-22.75L305.03-22.75 304.88-21.5Q304.53-19.4 304.38-17.15L304.38-17.15Q304.23-15.25 304.23-12.05L304.23-12.05 304.23-8.6Q304.23-6.45 304.35-5.43 304.48-4.4 304.88-3.85 305.28-3.3 306.23-3.25L306.23-3.25ZM300.43-8.65Q300.48-11 300.48-14.7L300.48-14.7Q300.48-17.15 299.43-18.68 298.38-20.2 296.88-20.85 295.38-21.5 294.03-21.5L294.03-21.5Q291.38-21.5 289.6-20 287.82-18.5 287-16.25 286.18-14 286.18-11.8L286.18-11.8Q286.18-8.3 287.9-5.53 289.63-2.75 293.57-2.75L293.57-2.75Q296.53-2.75 298.45-4.28 300.38-5.8 300.43-8.65L300.43-8.65ZM326.82-25.65Q330.17-25.65 332.95-24.23 335.72-22.8 337.37-19.93 339.02-17.05 339.02-12.85L339.02-12.85Q339.02-8.8 337.45-5.88 335.87-2.95 333.07-1.45 330.27 0.05 326.67 0.05L326.67 0.05Q323.72 0.05 321.32-0.8 318.92-1.65 317.77-2.5L317.77-2.5 317.62 2.55 317.42 9.6Q317.37 10.35 316.85 10.78 316.32 11.2 315.47 11.2L315.47 11.2Q314.57 11.2 314.1 10.73 313.62 10.25 313.62 9.45L313.62 9.45Q313.72 5.4 313.82 3.15L313.82 3.15 313.97-2.3Q314.12-8.25 314.12-17.55L314.12-17.55Q314.12-19.1 313.77-20.13 313.42-21.15 312.67-22.05L312.67-22.05Q312.62-22.1 312.4-22.33 312.17-22.55 312.17-23L312.17-23Q312.17-23.65 312.9-24.23 313.62-24.8 314.27-24.8L314.27-24.8Q314.62-24.8 314.9-24.63 315.17-24.45 315.22-24.4L315.22-24.4Q315.57-24.1 316.2-23.1 316.82-22.1 317.22-21.15L317.22-21.15Q318.42-22.9 320.87-24.28 323.32-25.65 326.82-25.65L326.82-25.65ZM326.62-3.15Q330.42-3.15 332.8-5.7 335.17-8.25 335.17-12.9L335.17-12.9Q335.17-17.75 332.72-20.05 330.27-22.35 326.67-22.35L326.67-22.35Q324.17-22.35 322.17-21.23 320.17-20.1 319.07-18.6 317.97-17.1 317.97-16.2L317.97-16.2Q317.97-10.7 317.92-6.75L317.92-6.75Q318.17-6.1 319.52-5.23 320.87-4.35 322.8-3.75 324.72-3.15 326.62-3.15L326.62-3.15ZM357.67-25.65Q361.02-25.65 363.8-24.23 366.57-22.8 368.22-19.93 369.87-17.05 369.87-12.85L369.87-12.85Q369.87-8.8 368.3-5.88 366.72-2.95 363.92-1.45 361.12 0.05 357.52 0.05L357.52 0.05Q354.57 0.05 352.17-0.8 349.77-1.65 348.62-2.5L348.62-2.5 348.47 2.55 348.27 9.6Q348.22 10.35 347.69 10.78 347.17 11.2 346.32 11.2L346.32 11.2Q345.42 11.2 344.94 10.73 344.47 10.25 344.47 9.45L344.47 9.45Q344.57 5.4 344.67 3.15L344.67 3.15 344.82-2.3Q344.97-8.25 344.97-17.55L344.97-17.55Q344.97-19.1 344.62-20.13 344.27-21.15 343.52-22.05L343.52-22.05Q343.47-22.1 343.25-22.33 343.02-22.55 343.02-23L343.02-23Q343.02-23.65 343.75-24.23 344.47-24.8 345.12-24.8L345.12-24.8Q345.47-24.8 345.75-24.63 346.02-24.45 346.07-24.4L346.07-24.4Q346.42-24.1 347.05-23.1 347.67-22.1 348.07-21.15L348.07-21.15Q349.27-22.9 351.72-24.28 354.17-25.65 357.67-25.65L357.67-25.65ZM357.47-3.15Q361.27-3.15 363.65-5.7 366.02-8.25 366.02-12.9L366.02-12.9Q366.02-17.75 363.57-20.05 361.12-22.35 357.52-22.35L357.52-22.35Q355.02-22.35 353.02-21.23 351.02-20.1 349.92-18.6 348.82-17.1 348.82-16.2L348.82-16.2Q348.82-10.7 348.77-6.75L348.77-6.75Q349.02-6.1 350.37-5.23 351.72-4.35 353.65-3.75 355.57-3.15 357.47-3.15L357.47-3.15Z" opacity="1" transform="matrix(1,0,0,1,0,0)" fill="#bb84e8" class="wordmark-text-0" data-fill-palette-color="primary" id="text-0"></path></svg></g></svg></g><g transform="matrix(1,0,0,1,0,51.9531836547139)"><svg viewBox="0 0 84.61267570307305 25.974994659400544" height="25.974994659400544" width="84.61267570307305"><g transform="matrix(1,0,0,1,0,0)"><svg width="84.61267570307305" viewBox="0.55 -29.5 158.14 48.55" height="25.974994659400544" data-palette-color="#471aa0"><path d="M34.85 1.25L34.85 1.25Q33.3 1.25 32.6-0.13 31.9-1.5 31.9-3.63 31.9-5.75 32.8-9.45L32.8-9.45Q31.05-9.6 26.85-10.15L26.85-10.15Q19.9-1.55 15.3 1.8L15.3 1.8Q11.35 4.75 7.1 4.75L7.1 4.75Q4.4 4.75 2.48 3.4 0.55 2.05 0.55-0.6L0.55-0.6Q0.55-1.1 0.8-1.53 1.05-1.95 1.3-1.75 1.55-1.55 1.55-0.6L1.55-0.6Q1.55 1.1 2.88 1.95 4.2 2.8 6.1 2.8L6.1 2.8Q10.2 2.8 14.18 0.13 18.15-2.55 25-10.35L25-10.35Q17.65-11.25 15.3-11.25L15.3-11.25Q8.95-11.25 7.45-7.1L7.45-7.1Q7.25-6.55 7.25-6.08 7.25-5.6 7.45-5.23 7.65-4.85 7.53-4.63 7.4-4.4 7.1-4.42 6.8-4.45 6.6-4.75L6.6-4.75Q6.05-5.7 6.05-6.6L6.05-6.6Q6.05-9.7 7.18-11.18 8.3-12.65 9.8-13.05L9.8-13.05Q11.6-13.55 14-13.55 16.4-13.55 26.1-11.65L26.1-11.65Q28.8-14.75 34.3-21.63 39.8-28.5 39.8-28.6L39.8-28.6 39.85-28.6Q39.9-28.65 40.1-28.75L40.1-28.75Q41.3-29.45 42.7-29.45L42.7-29.45Q43.2-29.45 43.2-28.95L43.2-28.95Q43.2-28.9 43.15-28.83 43.1-28.75 43.05-28.63 43-28.5 42.95-28.4L42.95-28.4Q38.15-20.45 35.5-10.5L35.5-10.5 35.35-10.15 36.6-10.1Q37-10.05 38.02-10.05 39.05-10.05 40.2-10.53 41.35-11 41.68-11.55 42-12.1 42.25-11.8 42.5-11.5 42.3-11.15L42.3-11.15Q41.75-10.15 40.35-9.7L40.35-9.7Q39.15-9.2 37.98-9.2 36.8-9.2 36.45-9.2L36.45-9.2 35.1-9.25Q34.15-4.9 34.15-2.33 34.15 0.25 35.55 0.25L35.55 0.25Q36.9 0.25 39.75-1.9 42.6-4.05 45.1-7.45L45.1-7.45Q45.25-7.65 45.5-7.55 45.75-7.45 45.75-7.3 45.75-7.15 45.68-6.93 45.6-6.7 44.9-5.8L44.9-5.8Q42.8-3 39.75-0.5L39.75-0.5Q37.55 1.25 34.85 1.25ZM37.6-23.9L37.6-23.9Q37.65-24 37.73-24.18 37.8-24.35 37.85-24.45L37.85-24.45Q31.6-15.9 27.8-11.25L27.8-11.25 33.05-10.4Q34.45-15.85 37.6-23.9ZM58.35-14.2L58.35-14.2Q59.5-14.2 59.5-12.98 59.5-11.75 58.35-9.6 57.2-7.45 56.65-6.1L56.65-6.1Q55.7-3.8 55.7-2.43 55.7-1.05 56.1-0.6L56.1-0.6Q56.85 0.2 58.15-0.53 59.45-1.25 61.77-3.33 64.1-5.4 65.5-7.4L65.5-7.4Q65.7-7.65 65.97-7.53 66.25-7.4 66.25-7.28 66.25-7.15 66.15-7L66.15-7Q65.4-5.65 63.45-3.55 61.5-1.45 59.7-0.18 57.9 1.1 56.15 1.1L56.15 1.1Q54.45 1.05 53.75 0.33 53.05-0.4 53.05-1.5 53.05-2.6 53.25-3.63 53.45-4.65 54-6L54-6Q54.9-8.15 55.57-9.35 56.25-10.55 56.25-10.93 56.25-11.3 55.85-11.3L55.85-11.3Q55.05-11.3 52.8-9.35L52.8-9.35Q51.25-7.9 48.22-3.88 45.2 0.15 44.8 0.4L44.8 0.4Q43 1.3 42.55 1.3 42.1 1.3 42.1 1.15 42.1 1 42.2 0.73 42.3 0.45 43.17-2 44.05-4.45 45.07-7.38 46.1-10.3 46.32-10.9 46.55-11.5 46.62-11.93 46.7-12.35 46.8-12.65 46.9-12.95 47.17-13.33 47.45-13.7 47.9-13.73 48.35-13.75 49.05-13.63 49.75-13.5 49.75-13L49.75-13Q49.75-12.65 49.2-11.48 48.65-10.3 46.05-3.4L46.05-3.4Q47.85-5.6 50.6-8.47 53.35-11.35 55.25-12.85L55.25-12.85Q57.15-14.2 58.35-14.2ZM63.55 19.05L63.55 19.05Q63.15 19.05 62.55 18.9L62.55 18.9Q60 18.25 60 16.23 60 14.2 62.62 11.15 65.25 8.1 73.7 2.5L73.7 2.5Q78.4-7.1 79.65-10.95L79.65-10.95Q79.05-10.25 77.3-7.93 75.55-5.6 74.2-3.98 72.85-2.35 70.95-0.9 69.05 0.55 67.45 0.55 65.85 0.55 64.97-0.18 64.1-0.9 64-1.7 63.9-2.5 63.9-3.05L63.9-3.05Q63.9-4.9 64.9-6.75L64.9-6.75Q66.4-9.8 68.95-12L68.95-12Q69.9-12.9 70.62-12.9 71.35-12.9 71.95-12.45L71.95-12.45Q72.6-11.75 72.35-11.25L72.35-11.25Q70.45-10.15 68-7L68-7Q66.7-5.3 66.2-2.7L66.2-2.7Q66.15-2.35 66.15-1.83 66.15-1.3 66.57-0.98 67-0.65 67.45-0.65L67.45-0.65Q69-0.65 70.7-2.3 72.4-3.95 73.95-5.78 75.5-7.6 77.47-10.15 79.45-12.7 80.07-13.5 80.7-14.3 81.35-14.3L81.35-14.3Q82.15-14.3 83-13.85 83.85-13.4 83.72-13.15 83.6-12.9 81.17-7.48 78.75-2.05 77.65 0.3L77.65 0.3Q78.85-0.35 81.72-2.78 84.6-5.2 86.6-7.7L86.6-7.7Q87.1-8.3 87.25-7.8L87.25-7.8Q87.3-7.7 87.3-7.48 87.3-7.25 87-6.85L87-6.85Q85.45-4.8 82.05-1.7 78.65 1.4 76.65 2.5L76.65 2.5Q72.4 11.25 70.95 13.5L70.95 13.5Q67.2 19.05 63.55 19.05ZM72.75 4.4L72.75 4.4Q66.75 8.9 64.17 11.5 61.6 14.1 61.6 15.98 61.6 17.85 62.9 17.85L62.9 17.85Q63.9 17.85 65.2 16.82 66.5 15.8 67.7 14.1 68.9 12.4 69.52 11.18 70.15 9.95 71.25 7.58 72.35 5.2 72.75 4.4ZM119.54-16.85L119.54-16.85Q119.54-9.4 114.39-3.53 109.24 2.35 102.94 3.8L102.94 3.8Q101.09 4.25 99.39 4.25L99.39 4.25Q94.74 4.25 91.69 0.8 88.64-2.65 88.64-7.9L88.64-7.9Q88.64-14.85 93.39-19.4L93.39-19.4Q96.39-22.3 100.74-23.35L100.74-23.35Q102.04-23.6 103.14-23.6L103.14-23.6Q105.64-23.6 106.79-22.43 107.94-21.25 107.44-21.25L107.44-21.25 106.64-21.65Q105.59-22.05 104.82-22.05 104.04-22.05 103.49-21.9L103.49-21.9Q97.49-20.5 93.79-14.7L93.79-14.7Q90.94-10.2 90.94-5.65L90.94-5.65Q90.94 0.6 95.49 2.45L95.49 2.45Q96.99 3.1 98.77 3.1 100.54 3.1 102.39 2.65L102.39 2.65Q105.74 1.9 109.19-1.53 112.64-4.95 114.84-9.6 117.04-14.25 117.04-18.3L117.04-18.3Q117.04-23.6 113.89-26.2L113.89-26.2Q111.24-28.3 106.94-28.3L106.94-28.3Q106.29-28.3 105.54-28.25L105.54-28.25Q99.99-27.9 95.29-24.5L95.29-24.5Q91.84-22.1 89.49-18.55 87.14-15 86.89-11.5L86.89-11.5Q86.84-10.7 86.42-11.13 85.99-11.55 85.99-12.4L85.99-12.4Q85.99-16 88.12-19.48 90.24-22.95 93.79-25.5L93.79-25.5Q96.29-27.3 99.52-28.38 102.74-29.45 105.69-29.5L105.69-29.5Q111.84-29.5 115.69-26.15 119.54-22.8 119.54-16.85ZM134.89-14.2L134.89-14.2Q136.04-14.2 136.04-12.98 136.04-11.75 134.89-9.6 133.74-7.45 133.19-6.1L133.19-6.1Q132.24-3.8 132.24-2.43 132.24-1.05 132.64-0.6L132.64-0.6Q133.39 0.2 134.69-0.53 135.99-1.25 138.31-3.33 140.64-5.4 142.04-7.4L142.04-7.4Q142.24-7.65 142.52-7.53 142.79-7.4 142.79-7.28 142.79-7.15 142.69-7L142.69-7Q141.94-5.65 139.99-3.55 138.04-1.45 136.24-0.18 134.44 1.1 132.69 1.1L132.69 1.1Q130.99 1.05 130.29 0.33 129.59-0.4 129.59-1.5 129.59-2.6 129.79-3.63 129.99-4.65 130.54-6L130.54-6Q131.44-8.15 132.12-9.35 132.79-10.55 132.79-10.93 132.79-11.3 132.39-11.3L132.39-11.3Q131.59-11.3 129.34-9.35L129.34-9.35Q127.79-7.9 124.77-3.88 121.74 0.15 121.34 0.4L121.34 0.4Q119.54 1.3 119.09 1.3 118.64 1.3 118.64 1.15 118.64 1 118.74 0.73 118.84 0.45 119.72-2 120.59-4.45 121.62-7.38 122.64-10.3 122.87-10.9 123.09-11.5 123.17-11.93 123.24-12.35 123.34-12.65 123.44-12.95 123.72-13.33 123.99-13.7 124.44-13.73 124.89-13.75 125.59-13.63 126.29-13.5 126.29-13L126.29-13Q126.29-12.65 125.74-11.48 125.19-10.3 122.59-3.4L122.59-3.4Q124.39-5.6 127.14-8.47 129.89-11.35 131.79-12.85L131.79-12.85Q133.69-14.2 134.89-14.2ZM152.99-14.55L152.99-14.55Q155.69-14.55 155.69-11.95L155.69-11.95Q155.69-10.6 154.94-9.75L154.94-9.75Q153.69-7.9 150.89-6.53 148.09-5.15 146.14-5L146.14-5Q145.44-4.95 145.39-5.4L145.39-5.4Q145.34-5.6 145.51-5.65 145.69-5.7 145.79-5.7L145.79-5.7Q146.94-5.8 148.74-6.8L148.74-6.8Q152.09-8.6 153.64-10.5L153.64-10.5Q154.29-11.4 154.29-12.23 154.29-13.05 153.49-13.05L153.49-13.05Q152.84-13.05 151.74-12.5L151.74-12.5Q149.39-11.4 146.79-8.68 144.19-5.95 143.39-3.35L143.39-3.35Q143.14-2.55 143.14-1.78 143.14-1 143.79-0.3 144.44 0.4 145.79 0.4L145.79 0.4Q147.29 0.4 149.24-0.4L149.24-0.4Q154.89-2.7 157.94-7.35L157.94-7.35Q158.24-7.75 158.49-7.5L158.49-7.5Q158.69-7.4 158.69-7.25 158.69-7.1 158.54-6.9L158.54-6.9Q157.04-4.4 154.74-2.45L154.74-2.45Q150.29 1.35 146.09 1.35L146.09 1.35Q142.49 1.35 141.04-0.8L141.04-0.8Q140.49-1.65 140.49-2.85 140.49-4.05 141.14-5.7L141.14-5.7Q142.39-8.55 146.49-11.55 150.59-14.55 152.99-14.55Z" opacity="1" transform="matrix(1,0,0,1,0,0)" fill="#471aa0" class="slogan-text-1" data-fill-palette-color="secondary" id="text-1"></path></svg></g></svg></g></svg></g></svg></g><g><svg viewBox="0 0 35.52882224498347 107.69674243010616" height="107.69674243010616" width="35.52882224498347"><g><svg xmlns="http://www.w3.org/2000/svg" xmlns:xlink="http://www.w3.org/1999/xlink" version="1.1" x="0" y="0" viewBox="4.5 0 16 48.5" enable-background="new 0.5 24.5 24 24" xml:space="preserve" width="35.52882224498347" height="107.69674243010616" class="icon-icon-0" data-fill-palette-color="accent" id="icon-0"><g fill="#471aa0" data-fill-palette-color="accent"><circle cx="12.5" cy="28.5" r="4.0" fill="#471aa0" data-fill-palette-color="accent"></circle><path d="M16.5 34.5h-8c-2.209 0-4 1.791-4 4v10h16v-10C20.5 36.291 18.709 34.5 16.5 34.5zM12.5 47.5c-0.553 0-1-0.447-1-1s0.447-1 1-1 1 0.447 1 1S13.053 47.5 12.5 47.5zM14.289 42.247C13.742 42.734 13.5 42.972 13.5 43.5c0 0.553-0.447 1-1 1s-1-0.447-1-1c0-1.449 0.844-2.199 1.461-2.747 0.547-0.487 0.789-0.725 0.789-1.253 0-0.689-0.561-1.25-1.25-1.25s-1.25 0.561-1.25 1.25c0 0.553-0.447 1-1 1s-1-0.447-1-1c0-1.792 1.458-3.25 3.25-3.25s3.25 1.458 3.25 3.25C15.75 40.949 14.906 41.699 14.289 42.247z" fill="#471aa0" data-fill-palette-color="accent"></path></g></svg></g></svg></g></svg></g><defs></defs></svg><rect width="395.52" height="96.59635092818056" fill="none" stroke="none" visibility="hidden"></rect></g></svg></g></svg>